<svg xmlns="http://www.w3.org/2000/svg" viewBox="0 0 512 512">
  <defs>
    <linearGradient id="badgeGrad" x1="0%" y1="0%" x2="100%" y2="100%">
      <stop offset="0%" stop-color="#00d2b4" />
      <stop offset="50%" stop-color="#00c9a7" />
      <stop offset="100%" stop-color="#0a9396" />
    </linearGradient>
  </defs>

  <!-- Rounded Teal Badge Container matching Image 3 -->
  <rect width="512" height="512" rx="140" fill="url(#badgeGrad)" />

  <!-- Laboratory Test Tube Icon matching Image 3 -->
  <g transform="translate(256, 256) rotate(-15) translate(-256, -256)">
    <!-- Liquid Level -->
    <path 
      d="M 192 272 Q 256 296 320 272 L 320 400 C 320 435 288 456 256 456 C 224 456 192 435 192 400 Z" 
      fill="#5eead4" 
      opacity="0.95"
    />
    <!-- Main Outline -->
    <path 
      d="M 176 96 L 336 96 M 200 96 L 200 384 C 200 424 224 448 256 448 C 288 448 312 424 312 384 L 312 96" 
      stroke="#070a13" 
      stroke-width="32" 
      stroke-linecap="round" 
      stroke-linejoin="round" 
      fill="none"
    />
    <!-- Lip / Rim -->
    <path 
      d="M 168 96 C 168 84 180 76 192 76 L 320 76 C 332 76 344 84 344 96" 
      stroke="#070a13" 
      stroke-width="32" 
      stroke-linecap="round" 
      fill="none"
    />
    <!-- Hash Marks -->
    <line x1="312" y1="176" x2="264" y2="176" stroke="#070a13" stroke-width="24" stroke-linecap="round" />
    <line x1="312" y1="224" x2="280" y2="224" stroke="#070a13" stroke-width="24" stroke-linecap="round" />
    <line x1="312" y1="272" x2="264" y2="272" stroke="#070a13" stroke-width="24" stroke-linecap="round" />
    <line x1="312" y1="320" x2="280" y2="320" stroke="#070a13" stroke-width="24" stroke-linecap="round" />
  </g>
</svg>
